<svg xmlns="http://www.w3.org/2000/svg" viewBox="0 0 96 96" role="img" aria-labelledby="title desc">
  <title id="title">默认动漫头像</title>
  <desc id="desc">暖色系动漫人物头像</desc>
  <defs>
    <linearGradient id="bg" x1="0" y1="0" x2="1" y2="1">
      <stop offset="0" stop-color="#fff1d6" />
      <stop offset="1" stop-color="#ffd39b" />
    </linearGradient>
    <linearGradient id="hair" x1="0" y1="0" x2="1" y2="1">
      <stop offset="0" stop-color="#5f3d32" />
      <stop offset="1" stop-color="#2f2024" />
    </linearGradient>
  </defs>
  <circle cx="48" cy="48" r="48" fill="url(#bg)" />
  <path d="M18 88c2-19 14-29 30-29s28 10 30 29" fill="#f5a524" />
  <path d="M22 46c-4-20 6-34 26-34 19 0 30 12 26 35-3-7-8-12-15-15-8 7-19 11-37 14Z" fill="url(#hair)" />
  <path d="M27 44c0-13 9-23 21-23s21 10 21 23v9c0 13-9 22-21 22S27 66 27 53Z" fill="#ffd7b5" />
  <path d="M29 44c8-2 18-8 25-15 4 5 9 8 15 10-3-15-11-22-22-22-11 0-18 10-18 27Z" fill="url(#hair)" />
  <circle cx="40" cy="51" r="3" fill="#3c2b32" />
  <circle cx="57" cy="51" r="3" fill="#3c2b32" />
  <path d="M43 63c3 3 7 3 10 0" fill="none" stroke="#d47772" stroke-linecap="round" stroke-width="2.5" />
  <circle cx="32" cy="59" r="4" fill="#f3a29b" opacity=".45" />
  <circle cx="64" cy="59" r="4" fill="#f3a29b" opacity=".45" />
  <path d="M28 42c-6 1-8 7-5 13l5-2M68 42c6 1 8 7 5 13l-5-2" fill="#ffd7b5" />
</svg>
